<svg width="32" height="32" viewBox="0 0 32 32" fill="none" xmlns="http://www.w3.org/2000/svg">
<path d="M13 0C11.3562 0 9.8625 0.6625 8.775 1.7375C8.775 1.7375 8.76875 1.74375 8.7625 1.74375C8.75 1.75 8.7375 1.75625 8.7125 1.75625C8.66875 1.7625 8.63125 1.75 8.6125 1.7375C7.85625 1.26875 6.95625 1 6 1C3.2375 1 1 3.2375 1 6C1 8.7625 3.2375 11 6 11C6.95625 11 7.85625 10.7312 8.61875 10.2625C8.6375 10.25 8.66875 10.2375 8.71875 10.2437C8.7375 10.2437 8.75625 10.25 8.76875 10.2563C8.775 10.2563 8.775 10.2625 8.78125 10.2625C9.8625 11.3375 11.3562 12 13 12C14.6438 12 16.1375 11.3375 17.225 10.2625C17.225 10.2625 17.225 10.2625 17.2313 10.2625H17.2375C17.25 10.2562 17.2625 10.25 17.2875 10.25C17.3313 10.2437 17.3688 10.2563 17.3875 10.2688C18.15 10.7375 19.05 11.0063 20.0063 11.0063C22.7688 11.0063 25.0063 8.76875 25.0063 6.00625C25.0063 3.24375 22.7688 1.00625 20.0063 1.00625C19.05 1.00625 18.15 1.275 17.3875 1.74375C17.3688 1.75625 17.3375 1.76875 17.2875 1.7625C17.2688 1.7625 17.25 1.75625 17.2375 1.75C17.2312 1.75 17.2313 1.74375 17.225 1.74375C16.1375 0.6625 14.6438 0 13 0ZM10.1875 3.15625C10.9062 2.44375 11.9 2 13 2C14.1 2 15.0938 2.44375 15.8125 3.15625C16.5188 3.85625 17.625 3.93125 18.425 3.4375C18.8812 3.15625 19.4187 2.99375 19.9937 2.99375C21.65 2.99375 22.9937 4.3375 22.9937 5.99375C22.9937 7.65 21.65 8.99375 19.9937 8.99375C19.4187 8.99375 18.8812 8.83125 18.425 8.55C17.625 8.05625 16.5188 8.13125 15.8125 8.83125C15.0875 9.55 14.0938 9.9875 13 9.9875C11.9062 9.9875 10.9062 9.54375 10.1875 8.83125C9.48125 8.13125 8.375 8.05625 7.575 8.55C7.11875 8.83125 6.58125 8.99375 6.00625 8.99375C4.35 8.99375 3.00625 7.65 3.00625 5.99375C3.00625 4.3375 4.35 2.99375 6.00625 2.99375C6.58125 2.99375 7.11875 3.15625 7.575 3.4375C8.375 3.93125 9.48125 3.85625 10.1875 3.15625ZM2 11.7437V28C2 30.2062 3.79375 32 6 32H20C22.2062 32 24 30.2062 24 28V27.1562L29.0063 24.9688C30.825 24.175 32 22.375 32 20.3875V17C32 14.2375 29.7625 12 27 12H24V11.7437C23.3937 12.1625 22.725 12.4938 22 12.7063V26.4813C22 26.4938 22 26.5125 22 26.525V28C22 29.1063 21.1063 30 20 30H6C4.89375 30 4 29.1063 4 28V12.7125C3.275 12.5 2.60625 12.1687 2 11.75V11.7437ZM13 14C12.45 14 12 14.45 12 15V25C12 25.55 12.45 26 13 26C13.55 26 14 25.55 14 25V15C14 14.45 13.55 14 13 14ZM27 14C28.6562 14 30 15.3438 30 17V20.3813C30 21.575 29.2938 22.65 28.2 23.1313L24 24.9688V14H27ZM10 15C10 14.45 9.55 14 9 14C8.45 14 8 14.45 8 15V25C8 25.55 8.45 26 9 26C9.55 26 10 25.55 10 25V15ZM18 15C18 14.45 17.55 14 17 14C16.45 14 16 14.45 16 15V25C16 25.55 16.45 26 17 26C17.55 26 18 25.55 18 25V15Z" fill="black"/>
</svg>
