<svg width="32" height="32" viewBox="0 0 32 32" fill="none" xmlns="http://www.w3.org/2000/svg">
<path d="M16 4C21.9 4 26.8062 8.25625 27.8125 13.8625V13.8687C27.8125 13.875 27.8063 13.8812 27.7938 13.8875C27.75 13.9375 27.6437 13.9937 27.5 13.9937H4.5C4.35 13.9937 4.25 13.9312 4.20625 13.8875C4.2 13.8812 4.19375 13.875 4.1875 13.8687V13.8625C5.19375 8.25625 10.1 4 16 4ZM27.5 16C28.8813 16 30.025 14.8687 29.7812 13.5125C28.6063 6.96875 22.8813 2 16 2C9.11875 2 3.39375 6.96875 2.21875 13.5125C1.975 14.8687 3.11875 16 4.5 16H27.5ZM8 28C5.79375 28 4 26.2062 4 24H28C28 26.2062 26.2062 28 24 28H8ZM2 24C2 27.3125 4.6875 30 8 30H24C27.3125 30 30 27.3125 30 24C30 22.8937 29.1063 22 28 22H4C2.89375 22 2 22.8937 2 24ZM1 19C1 19.55 1.45 20 2 20H30C30.55 20 31 19.55 31 19C31 18.45 30.55 18 30 18H2C1.45 18 1 18.45 1 19ZM10 10C10.2652 10 10.5196 9.89464 10.7071 9.70711C10.8946 9.51957 11 9.26522 11 9C11 8.73478 10.8946 8.48043 10.7071 8.29289C10.5196 8.10536 10.2652 8 10 8C9.73478 8 9.48043 8.10536 9.29289 8.29289C9.10536 8.48043 9 8.73478 9 9C9 9.26522 9.10536 9.51957 9.29289 9.70711C9.48043 9.89464 9.73478 10 10 10ZM17 7C17 6.73478 16.8946 6.48043 16.7071 6.29289C16.5196 6.10536 16.2652 6 16 6C15.7348 6 15.4804 6.10536 15.2929 6.29289C15.1054 6.48043 15 6.73478 15 7C15 7.26522 15.1054 7.51957 15.2929 7.70711C15.4804 7.89464 15.7348 8 16 8C16.2652 8 16.5196 7.89464 16.7071 7.70711C16.8946 7.51957 17 7.26522 17 7ZM22 10C22.2652 10 22.5196 9.89464 22.7071 9.70711C22.8946 9.51957 23 9.26522 23 9C23 8.73478 22.8946 8.48043 22.7071 8.29289C22.5196 8.10536 22.2652 8 22 8C21.7348 8 21.4804 8.10536 21.2929 8.29289C21.1054 8.48043 21 8.73478 21 9C21 9.26522 21.1054 9.51957 21.2929 9.70711C21.4804 9.89464 21.7348 10 22 10Z" fill="black"/>
</svg>
