<svg width="48" height="36" viewBox="0 0 48 36" fill="#000000" xmlns="http://www.w3.org/2000/svg">
<g filter="url(#filter0_d_3301_3136)">
<path d="M30 2H31H32V12V14V16C32 18.2062 30.2062 20 28 20H16C13.7938 20 12 18.2062 12 16V2H30ZM34 16V14H37C40.8688 14 44 10.8688 44 7C44 3.13125 40.8688 0 37 0H32H31H30H12C10.8937 0 10 0.89375 10 2V16C10 19.3125 12.6875 22 16 22H28C31.3125 22 34 19.3125 34 16ZM37 12H34V2H37C39.7625 2 42 4.2375 42 7C42 9.7625 39.7625 12 37 12ZM5 26C4.45 26 4 26.45 4 27C4 27.55 4.45 28 5 28H39C39.55 28 40 27.55 40 27C40 26.45 39.55 26 39 26H5Z" fill="#000000"/>
</g>
<defs>
<filter id="filter0_d_3301_3136" x="0" y="0" width="48" height="36" filterUnits="userSpaceOnUse" color-interpolation-filters="sRGB">
<feFlood flood-opacity="0" result="BackgroundImageFix"/>
<feColorMatrix in="SourceAlpha" type="matrix" values="0 0 0 0 0 0 0 0 0 0 0 0 0 0 0 0 0 0 127 0" result="hardAlpha"/>
<feOffset dy="4"/>
<feGaussianBlur stdDeviation="2"/>
<feComposite in2="hardAlpha" operator="out"/>
<feColorMatrix type="matrix" values="0 0 0 0 0 0 0 0 0 0 0 0 0 0 0 0 0 0 0.25 0"/>
<feBlend mode="normal" in2="BackgroundImageFix" result="effect1_dropShadow_3301_3136"/>
<feBlend mode="normal" in="SourceGraphic" in2="effect1_dropShadow_3301_3136" result="shape"/>
</filter>
</defs>
</svg>
