<svg width="28" height="32" viewBox="0 0 28 32" fill="none" xmlns="http://www.w3.org/2000/svg">
<g clip-path="url(#clip0_3302_3168)">
<path d="M11 2C10.45 2 10 1.55 10 1C10 0.45 10.45 0 11 0H19C19.4062 0 19.7687 0.24375 19.925 0.61875C20.0812 0.99375 19.9937 1.425 19.7062 1.70625L13.4125 8H19C19.55 8 20 8.45 20 9C20 9.55 19.55 10 19 10H11C10.5938 10 10.2312 9.75625 10.075 9.38125C9.91875 9.00625 10.0062 8.575 10.2937 8.29375L16.5875 2H11ZM0 15C0 14.45 0.45 14 1 14H13C13.3813 14 13.725 14.2125 13.8938 14.55C14.0625 14.8875 14.025 15.2938 13.8 15.6L3 30H13C13.55 30 14 30.45 14 31C14 31.55 13.55 32 13 32H1C0.61875 32 0.275 31.7875 0.10625 31.45C-0.0625 31.1125 -0.025 30.7062 0.2 30.4L11 16H1C0.45 16 0 15.55 0 15ZM19 14H27C27.3875 14 27.7375 14.2188 27.9 14.5688C28.0625 14.9188 28.0187 15.325 27.7812 15.625L21.0812 24H27C27.55 24 28 24.45 28 25C28 25.55 27.55 26 27 26H19C18.6125 26 18.2625 25.7812 18.1 25.4312C17.9375 25.0812 17.9813 24.675 18.2188 24.375L24.9188 16H19C18.45 16 18 15.55 18 15C18 14.45 18.45 14 19 14Z" fill="black"/>
</g>
<defs>
<clipPath id="clip0_3302_3168">
<rect width="28" height="32" fill="white"/>
</clipPath>
</defs>
</svg>
