<?xml version="1.0" encoding="UTF-8"?>
<svg version="1.1" viewBox="0 0 2048 2048" width="auto" height="auto" xmlns="http://www.w3.org/2000/svg">
<path transform="translate(892)" fill="#fdbc31" d="m0 0h3l5 12 19 38 10 19 26 52 10 19 30 60 10 19 22 44 10 19 30 60 10 19 26 52 10 19 30 60 10 19 22 44 10 19 30 60 10 19 26 52 10 19 30 60 10 19 22 44 10 19 33 66 10 19 25 50 10 19 28 56 10 19 26 52 10 19 6 11 1 1 259 1 2 3-5 9-11 21-47 94-9 17-26 52-10 19-27 54-9 17-34 68-10 19-35 70-9 17-26 52-10 19-31 62-10 19-33 66-10 19-31 62-9 17-27 54-10 19-7 15-3 5h-2l-8-16-8-15-33-66-10-19-21-42-10-19-25-50-10-19-34-68-10-19-25-50-10-19-28-56-10-19-25-50-10-19-31-62-10-19-27-54-10-19-25-50-10-19-29-58-9-17-11-22 1-3h259l-38-76-10-19-23-46-10-19-27-54-10-19-30-60-10-19-32-64-10-19-33-66-7-13-20 38-9 19-10 19-16 32-9 17-39 78-9 17-38 76-10 19-39 78-9 17-23 46-10 18-1 1h-355l-1-2 15-29 15-30 10-19 30-60 9-17 36-72 9-17 27-54 10-19 37-74 10-19 26-52 9-17 36-72 9-17 27-54 10-19 37-74 10-19 26-52 9-17 36-72 9-17 27-54 10-19 37-74 10-19 18-36 9-17 30-60zm243 1180m35 0-34 1 9 19 17 34 10 19 22 44 10 19 26 52 10 19 14 28 10 19 26 52 10 19 11 22 3 2 20-40 10-19 27-54 10-19 33-66 10-19 22-44 9-17 35-70-5-1z"/>
<path transform="translate(1488,1181)" d="m0 0"/>
</svg>
